# xmcd
#
# Track frame offsets: 
#        150
#        9725
#        32225
#        40762
#        57350
#        68812
#        88050
#        98750
#        110362
#        124387
#        137437
#        144187
#        163912
#        181162
#
# Disc length: 2487 seconds
#
# Revision: 0
# Processed by: cddbd v1.5.1PL0 Copyright (c) Steve Scherf et al.
# Submitted via: ExactAudioCopy v0.95a5
#
DISCID=bc09b50e
DTITLE=The Fred Band - Country Rockers And Proud
DYEAR=1994
DGENRE=Country
TTITLE0=That Fart Smelt
TTITLE1=Breakfast Rap
TTITLE2=I Got A Truck
TTITLE3=Gives Me The Shits
TTITLE4=Rocky's Boogie
TTITLE5=Haulin' Arse
TTITLE6=Ain't Seen Ugly
TTITLE7=Shit Happens
TTITLE8=Truck Stop
TTITLE9=Who Needs Enemas
TTITLE10=I Just Want A Missus (who'll do the dishes)
TTITLE11=Piss Orf
TTITLE12=Storm Brewing
TTITLE13=Unlisted
EXTD=
EXTT0=
EXTT1=
EXTT2=
EXTT3=
EXTT4=
EXTT5=
EXTT6=
EXTT7=
EXTT8=
EXTT9=
EXTT10=
EXTT11=
EXTT12=
EXTT13=
PLAYORDER=
